<?xml version="1.0" standalone="no"?>
<!DOCTYPE svg PUBLIC "-//W3C//DTD SVG 20010904//EN"
 "http://www.w3.org/TR/2001/REC-SVG-20010904/DTD/svg10.dtd">
<svg version="1.0" xmlns="http://www.w3.org/2000/svg"
 width="1200.000000pt" height="1200.000000pt" viewBox="0 0 1200.000000 1200.000000"
 preserveAspectRatio="xMidYMid meet">

<g transform="translate(0.000000,1200.000000) scale(0.100000,-0.100000)"
fill="#ecb60681" stroke="none">
<path d="M7360 11389 c-62 -25 -100 -85 -100 -157 0 -85 61 -151 147 -159 153
-15 240 169 131 274 -53 51 -118 66 -178 42z"/>
<path d="M6693 10720 c-92 -56 -82 -204 17 -244 52 -21 73 -20 118 3 47 24 72
67 72 123 0 109 -115 175 -207 118z"/>
<path d="M8133 10580 c-94 -57 -86 -198 14 -242 61 -27 105 -18 155 32 34 33
38 43 38 86 0 86 -55 144 -137 144 -21 0 -52 -9 -70 -20z"/>
<path d="M7589 10366 c-60 -16 -104 -48 -134 -100 -90 -153 18 -342 195 -340
125 2 220 98 220 224 0 149 -137 255 -281 216z"/>
<path d="M6765 9626 c-330 -65 -581 -299 -671 -626 -25 -91 -25 -319 0 -410
84 -304 303 -526 603 -612 103 -30 323 -32 423 -4 303 84 527 304 612 603 18
63 22 104 22 213 1 163 -15 232 -84 375 -55 113 -130 209 -222 285 -74 60
-235 141 -328 165 -90 22 -268 28 -355 11z"/>
<path d="M3536 9048 c-13 -50 -6 -151 11 -170 16 -18 17 -44 15 -256 -2 -130
-6 -252 -9 -271 -4 -24 -20 -47 -51 -75 -131 -118 -179 -172 -195 -220 -15
-45 -17 -125 -17 -816 l0 -767 23 -34 c42 -63 51 -64 372 -64 410 0 397 -9
405 281 l5 180 585 -220 585 -220 95 -1 95 0 270 119 c149 65 273 120 278 123
4 2 -7 -35 -25 -84 -17 -48 -140 -389 -273 -758 l-241 -670 -855 -572 c-470
-315 -881 -592 -914 -616 -113 -81 -99 -47 -531 -1259 -216 -607 -394 -1108
-394 -1115 0 -6 12 -15 28 -21 15 -5 199 -71 408 -146 210 -75 386 -136 392
-136 5 0 164 433 352 962 189 530 352 987 362 1016 l20 53 675 450 c371 248
677 449 679 447 2 -2 -96 -283 -218 -623 l-221 -620 -8 -440 c-4 -242 -10
-770 -14 -1172 l-8 -733 447 0 446 0 1 163 c0 89 6 581 13 1092 l13 930 212
585 c117 322 435 1204 708 1960 272 756 496 1376 497 1377 2 2 156 -75 343
-169 l340 -173 148 -775 c81 -426 149 -777 151 -779 3 -3 696 127 699 132 1 1
-74 400 -167 887 -131 687 -174 897 -194 937 -55 114 -45 108 -903 537 -436
219 -820 405 -861 418 -97 30 -292 33 -382 5 -32 -10 -355 -148 -718 -307
l-661 -289 -612 229 c-337 125 -619 231 -629 235 -14 6 -17 32 -20 218 -5 253
-11 275 -109 366 -33 31 -82 76 -109 101 l-47 45 -8 268 c-6 243 -6 269 9 280
14 10 16 28 14 102 l-3 90 -146 3 c-145 2 -147 2 -153 -20z"/>
</g>
</svg>
