<svg width="32" height="32" viewBox="0 0 32 32" fill="none" xmlns="http://www.w3.org/2000/svg">
<path d="M16 2.66699C14.249 2.66699 12.5152 3.01187 10.8975 3.68193C9.27984 4.35199 7.80998 5.33412 6.57187 6.57224C4.07138 9.07272 2.66663 12.4641 2.66663 16.0003C2.66663 19.5365 4.07138 22.9279 6.57187 25.4284C7.80998 26.6665 9.27984 27.6487 10.8975 28.3187C12.5152 28.9888 14.249 29.3337 16 29.3337C19.5362 29.3337 22.9276 27.9289 25.4281 25.4284C27.9285 22.9279 29.3333 19.5365 29.3333 16.0003C29.3333 14.2494 28.9884 12.5156 28.3184 10.8979C27.6483 9.2802 26.6662 7.81035 25.4281 6.57224C24.1899 5.33412 22.7201 4.35199 21.1024 3.68193C19.4847 3.01187 17.7509 2.66699 16 2.66699ZM9.42663 24.3737C9.99996 23.1737 13.4933 22.0003 16 22.0003C18.5066 22.0003 22 23.1737 22.5733 24.3737C20.7058 25.8617 18.3878 26.6704 16 26.667C13.52 26.667 11.24 25.8137 9.42663 24.3737ZM24.48 22.4403C22.5733 20.1203 17.9466 19.3337 16 19.3337C14.0533 19.3337 9.42663 20.1203 7.51996 22.4403C6.10154 20.5932 5.33285 18.3293 5.33329 16.0003C5.33329 10.1203 10.12 5.33366 16 5.33366C21.88 5.33366 26.6666 10.1203 26.6666 16.0003C26.6666 18.427 25.84 20.667 24.48 22.4403ZM16 8.00033C13.4133 8.00033 11.3333 10.0803 11.3333 12.667C11.3333 15.2537 13.4133 17.3337 16 17.3337C18.5866 17.3337 20.6666 15.2537 20.6666 12.667C20.6666 10.0803 18.5866 8.00033 16 8.00033ZM16 14.667C15.4695 14.667 14.9608 14.4563 14.5857 14.0812C14.2107 13.7061 14 13.1974 14 12.667C14 12.1366 14.2107 11.6279 14.5857 11.2528C14.9608 10.8777 15.4695 10.667 16 10.667C16.5304 10.667 17.0391 10.8777 17.4142 11.2528C17.7892 11.6279 18 12.1366 18 12.667C18 13.1974 17.7892 13.7061 17.4142 14.0812C17.0391 14.4563 16.5304 14.667 16 14.667Z" fill="#272626"/>
</svg>
