<svg version="1.1" id="Layer_1" xmlns="http://www.w3.org/2000/svg" xmlns:xlink="http://www.w3.org/1999/xlink" x="0px" y="0px"
	 width="100%" viewBox="0 0 1030 1030" enable-background="new 0 0 1030 1030" xml:space="preserve">
<path fill="#272626" opacity="1.000000" stroke="none" 
	d="
M1.000000,357.000000 
	C1.000000,239.347534 1.017455,122.195061 0.911181,5.042695 
	C0.908160,1.712900 1.445594,0.899829 4.956447,0.900924 
	C345.581787,1.007188 686.207153,1.008946 1026.832520,0.887002 
	C1030.667358,0.885629 1031.077759,1.954781 1031.076904,5.331501 
	C1030.994629,345.790192 1030.993774,686.248901 1031.086792,1026.707642 
	C1031.087646,1030.196655 1030.516724,1031.106201 1026.793335,1031.104980 
	C686.334656,1030.991943 345.875946,1030.991577 5.417269,1031.105347 
	C1.482143,1031.106689 0.914492,1030.014526 0.915999,1026.418335 
	C1.009473,803.445557 1.000000,580.472778 1.000000,357.000000 
z"/>
<path fill="#6C380E" opacity="1.000000" stroke="none" 
	d="
M86.606117,647.425720 
	C82.136612,634.812988 81.420746,621.911560 80.210373,609.220093 
	C78.412689,590.370422 77.243355,571.440796 77.001556,552.475342 
	C76.795403,536.304810 78.132324,520.240417 80.144241,504.233551 
	C82.218292,487.732300 84.003319,471.155792 87.050064,454.823975 
	C93.030602,422.765839 102.575394,392.120087 119.404106,363.546936 
	C129.579361,346.270538 142.764374,333.108551 158.501175,321.758453 
	C166.736725,315.818634 173.487579,308.028900 182.456741,303.023895 
	C199.113083,293.729187 216.416992,287.004974 235.994705,287.900696 
	C246.988403,288.403656 257.828369,286.037140 268.770325,285.395355 
	C271.084106,285.259644 273.416046,285.362610 275.737091,285.435577 
	C280.337372,285.580200 282.797852,282.989624 281.611725,278.603912 
	C278.435486,266.860168 275.811096,255.028015 275.095734,242.853928 
	C274.939392,240.193314 273.299255,239.122192 271.303192,238.124237 
	C264.452209,234.699051 257.605316,231.265564 250.762268,227.824585 
	C233.944763,219.367996 225.882187,205.348923 223.953018,186.948959 
	C222.479355,172.893402 223.367584,159.098541 225.846283,145.257263 
	C227.545456,135.768906 231.953690,128.175156 239.444092,122.163536 
	C246.851624,116.218414 254.344162,110.440552 262.539276,105.577843 
	C268.587250,101.989166 275.151276,100.846619 281.982025,99.903458 
	C295.769745,97.999702 309.188995,99.611046 322.439941,103.215683 
	C326.102509,104.211998 327.670898,103.291260 329.278687,99.895668 
	C335.356995,87.058533 342.620453,74.962242 352.749878,64.775345 
	C356.449280,61.054943 360.509155,57.959641 365.286469,55.848934 
	C379.626404,49.513256 394.163818,43.411201 409.652130,40.851936 
	C421.411438,38.908844 433.435425,38.903767 445.466003,39.476540 
	C466.194244,40.463406 485.953247,45.818546 505.257050,52.542542 
	C519.482971,57.497803 533.020264,64.349266 545.261414,73.594185 
	C560.364380,85.000488 574.151611,98.461098 591.928101,105.909889 
	C605.190796,111.467316 619.048889,113.755501 633.355713,110.355095 
	C654.055664,105.435181 674.760132,100.396713 695.822510,97.412193 
	C716.874573,94.429131 738.013184,91.420341 759.409424,93.025177 
	C772.528320,94.009178 785.619812,95.213203 797.660522,101.283836 
	C798.985962,101.952133 800.450806,102.466995 801.909302,102.729904 
	C823.228882,106.572792 841.278503,118.539368 860.918884,126.542183 
	C865.061951,128.230362 868.141357,131.873825 871.307068,135.028244 
	C880.149048,143.838684 888.699585,152.993118 897.610413,161.673096 
	C910.577148,174.303940 919.811890,189.601501 929.047302,204.523911 
	C941.355408,224.411224 948.058960,246.971008 949.947327,270.624084 
	C950.621338,279.066589 952.322266,287.458588 951.929260,295.949188 
	C950.688171,322.760803 945.317017,348.485291 934.659363,373.419220 
	C927.292358,390.654724 914.088013,401.587830 900.442444,412.713348 
	C899.540771,413.448486 898.402527,413.964081 897.677185,414.834229 
	C886.924744,427.733978 871.820129,431.380035 856.451294,435.193817 
	C844.853333,438.071808 832.828369,439.017487 820.416077,443.161163 
	C826.180664,445.984009 831.358093,447.837555 836.634766,447.723694 
	C846.474304,447.511383 855.453308,450.149872 863.924011,454.605133 
	C871.704956,458.697601 879.816895,462.227661 886.694824,467.985718 
	C891.450562,471.967163 897.453491,474.041565 903.122009,476.327820 
	C913.255554,480.414917 921.662292,486.570618 929.050110,494.524017 
	C943.150269,509.703583 955.889038,525.864746 966.387146,543.769470 
	C979.239563,565.689575 988.012939,589.140442 992.501831,614.110352 
	C997.908630,644.185852 998.789673,674.441650 991.943542,704.327454 
	C987.407959,724.126831 977.096436,741.693054 966.620850,758.967285 
	C963.775452,763.659424 960.826355,768.293457 957.787476,772.862732 
	C946.107544,790.424683 928.885132,801.512146 911.408264,812.245300 
	C908.124084,814.262207 905.176208,816.675354 902.046509,818.865723 
	C882.868652,832.287598 862.118347,841.854004 838.850891,846.059998 
	C820.558411,849.366699 803.641968,857.100647 786.685852,864.489563 
	C784.532959,865.427734 784.107178,866.594666 784.687988,868.754456 
	C787.825256,880.420959 788.698547,892.485718 792.968750,904.090759 
	C796.176941,912.809509 794.943787,922.770325 787.946045,930.885376 
	C783.405518,936.150635 780.111938,942.496094 775.538513,947.727051 
	C767.625977,956.777283 757.690735,963.442322 746.446045,967.460388 
	C728.431458,973.897400 710.184814,979.707825 691.922302,985.418640 
	C683.165771,988.156738 674.091675,989.143494 664.816223,989.045959 
	C650.343384,988.893677 635.703857,988.805542 621.441589,990.392334 
	C603.424622,992.396851 585.516174,992.142029 567.587708,991.762207 
	C551.999390,991.431946 536.436890,989.584106 520.878479,988.229065 
	C508.362213,987.138977 495.928101,988.712952 483.488220,989.353333 
	C476.290985,989.723755 469.179138,989.166443 462.111969,988.698486 
	C449.208435,987.844055 436.306610,986.696655 423.527069,984.204956 
	C416.528320,982.840393 410.189758,980.054138 403.691589,977.592712 
	C394.284637,974.029602 384.292664,972.884277 374.742676,969.895996 
	C364.865479,966.805176 355.127960,963.403198 345.699463,959.196960 
	C337.607239,955.586792 328.477051,955.440552 320.634155,950.908936 
	C309.152863,944.275085 300.470520,935.733154 298.298096,922.028809 
	C296.933960,913.423157 294.553467,905.095947 290.838654,897.230896 
	C287.344635,889.833374 286.322052,882.009094 285.933716,874.007690 
	C285.852570,872.336121 286.070465,870.292297 284.096924,869.761108 
	C276.168610,867.627319 271.414368,860.742554 264.586578,857.000977 
	C263.134338,856.205261 261.677307,855.185730 260.103729,854.879639 
	C242.163452,851.390259 228.457809,839.711548 213.384399,830.730774 
	C205.277405,825.900513 197.992020,819.457886 189.499283,815.570557 
	C179.930191,811.190613 174.057266,803.525940 167.005875,796.526489 
	C156.210541,785.810974 147.829376,773.185059 137.575134,762.099121 
	C128.881042,752.700012 124.092613,740.739868 117.020027,730.307312 
	C100.034187,705.252075 94.619240,676.113037 86.606117,647.425720 
z"/>
<path fill="#FFCE3A" opacity="1.000000" stroke="none" 
	d="
M733.361450,447.991943 
	C732.548645,456.723816 729.631775,464.606903 728.166870,472.797760 
	C725.828918,485.870422 726.949341,499.047638 726.933777,512.187195 
	C726.927612,517.345520 727.266296,522.504211 727.444641,528.103394 
	C727.419617,529.821106 727.527466,531.094910 727.652283,532.737183 
	C727.851624,533.491272 727.936829,533.879333 728.014160,534.566101 
	C726.644897,547.175415 721.999878,558.719482 719.623474,570.807190 
	C717.818604,579.987915 717.362000,589.284302 716.206787,598.516846 
	C713.378479,621.121582 717.445129,642.951599 723.431824,664.563538 
	C724.338989,667.838257 723.554932,670.898193 723.008118,673.938049 
	C718.966003,696.409912 714.206360,718.747253 706.770813,740.360718 
	C699.824097,760.553345 691.263489,779.975769 678.463013,797.398193 
	C666.018677,814.335938 649.468506,824.843018 629.970825,831.711609 
	C602.948059,841.231201 575.170654,846.779602 546.685242,849.407471 
	C533.070801,850.663452 519.466309,851.012390 505.821960,851.376953 
	C494.010529,851.692627 482.224579,851.249390 470.438354,851.103088 
	C455.979492,850.923584 441.573456,849.238159 427.152008,848.096558 
	C425.132507,847.936707 423.740906,846.949524 422.142212,845.304565 
	C418.468048,835.979980 417.454498,826.764587 418.787567,817.114441 
	C420.204590,806.856262 419.657410,796.477722 417.402313,786.401428 
	C414.194489,772.068359 410.299591,757.889038 406.367035,742.333801 
	C403.259277,748.557678 402.487610,754.174744 401.045776,759.499207 
	C395.378113,780.428711 392.730438,801.903076 390.056458,823.363220 
	C389.521393,827.657288 388.883606,831.938538 388.188599,836.624268 
	C386.496521,840.481934 383.903259,841.245300 380.283020,840.432922 
	C371.510376,838.464417 362.662781,836.800354 354.299316,833.360474 
	C349.042999,831.198486 347.477051,829.070007 347.943512,823.426819 
	C349.025696,810.334290 350.047729,797.236633 351.138855,784.146118 
	C352.064087,773.045776 352.828796,761.933655 353.683685,750.829773 
	C355.138519,731.933838 356.340698,713.015015 357.478668,694.099243 
	C358.287415,680.656006 359.072327,667.204468 359.780670,653.751831 
	C360.724884,635.820251 361.235809,617.867126 362.575287,599.954163 
	C363.207733,591.496460 363.260132,582.981445 363.451599,574.525696 
	C363.768188,560.547485 364.440674,546.579041 364.869781,532.609924 
	C366.051544,494.139313 366.346588,455.652771 365.553528,417.198792 
	C364.782288,379.802246 363.372559,342.350769 355.802643,305.496582 
	C354.254608,297.959930 351.838593,290.707916 348.765015,283.662720 
	C346.520142,278.517059 347.007202,275.724304 351.302094,272.197113 
	C358.034729,266.667877 365.363678,262.108734 373.767120,259.481293 
	C386.506073,255.498322 395.961914,259.740021 401.284729,272.079376 
	C407.251556,285.911652 414.467834,299.013763 424.014771,310.694427 
	C430.580414,318.727448 438.011841,325.858154 447.448059,330.607422 
	C460.062408,336.956268 472.239136,335.979401 483.965363,328.463165 
	C493.904266,322.092621 503.279785,314.784637 514.520752,310.642914 
	C521.095581,308.220398 527.664673,305.882172 534.806335,305.777405 
	C553.245117,305.506989 565.417664,315.177765 569.124207,333.311890 
	C571.130371,343.126770 573.344910,352.846619 578.036194,361.816315 
	C579.045837,363.746735 580.185303,365.585724 581.495544,367.305756 
	C586.561157,373.955780 592.700989,375.007233 599.818665,370.508911 
	C605.210510,367.101288 608.480652,367.631714 612.217041,372.914917 
	C611.903198,375.051178 610.568665,375.576202 609.058777,376.008270 
	C603.041565,377.730042 596.241760,385.244568 596.673950,391.417816 
	C597.294373,400.280060 597.143982,409.439667 601.448853,417.679291 
	C602.579529,419.843567 603.376892,422.656433 606.428589,422.671997 
	C609.731567,422.688873 611.321350,420.079834 612.550598,417.502045 
	C616.174072,409.903717 615.011108,401.855042 614.212524,393.960449 
	C613.746887,389.357086 612.676575,384.795837 612.281860,380.159576 
	C612.196533,379.157349 612.574890,378.194489 613.387573,377.034607 
	C617.024048,374.846252 619.362549,376.830414 621.544800,378.972504 
	C627.370361,384.690918 633.692749,389.784454 640.192261,394.722992 
	C651.458069,403.283020 663.570557,403.392700 676.135864,398.776062 
	C688.286438,394.311737 699.118652,387.565247 708.635376,378.744446 
	C713.499695,374.235809 717.216675,374.653503 720.147766,380.364380 
	C727.172791,394.052063 732.196289,408.282013 733.729797,423.831512 
	C734.523254,431.877594 734.066772,439.685760 733.361450,447.991943 
z"/>
<path fill="#EAEAEA" opacity="1.000000" stroke="none" 
	d="
M803.708374,446.046448 
	C819.315735,448.461548 834.430237,452.047211 849.183350,456.490753 
	C861.862000,460.309448 873.236877,467.665802 884.982300,473.965851 
	C907.565247,486.078979 925.246643,503.297180 940.314331,523.549744 
	C953.674255,541.506958 965.917908,560.264282 973.300049,581.506104 
	C979.362305,598.950195 984.311768,616.892212 985.559143,635.436096 
	C986.531494,649.890564 989.729187,664.185120 989.203674,678.701477 
	C987.798889,717.502319 973.290100,750.013550 942.508667,774.647339 
	C935.222168,780.478516 930.166870,788.593079 923.147949,794.794250 
	C913.004761,803.755432 902.739197,812.469238 889.861084,817.375854 
	C884.535645,819.404724 879.792480,822.521729 874.916138,825.398926 
	C868.574951,829.140259 862.000793,832.270874 854.565918,833.287720 
	C844.788513,834.625061 835.101196,837.864929 826.518188,841.710083 
	C811.382080,848.490967 795.274048,851.917480 780.137451,858.235352 
	C775.441223,860.195496 771.679688,864.092224 766.449097,865.990112 
	C761.677307,865.567261 762.104370,862.219482 763.346985,859.821777 
	C765.883545,854.927490 767.562744,849.683472 770.085144,844.805725 
	C780.187683,825.269714 789.923340,805.442627 796.713196,784.583252 
	C804.009033,762.169800 810.098938,739.279907 811.995544,715.529663 
	C812.846313,704.874939 813.057007,694.302734 812.073181,683.657593 
	C810.916138,671.138794 804.666138,660.643311 799.072754,649.903259 
	C794.542664,641.204956 787.743164,633.831543 783.958923,624.673218 
	C779.470337,613.810303 777.128723,602.395203 775.997803,590.773254 
	C774.580200,576.205139 773.144409,561.571777 773.918274,546.941223 
	C774.883362,528.691711 774.937378,510.357178 777.661011,492.232849 
	C779.418152,480.539825 774.805054,470.464508 769.035583,461.177704 
	C763.331299,451.995697 763.236816,443.348022 766.988892,433.712097 
	C771.575867,421.932037 775.769592,409.985291 776.645874,397.181152 
	C777.026489,391.619781 776.970154,386.021210 774.583557,380.977814 
	C767.483398,365.973236 765.700928,349.727264 762.678101,333.715576 
	C760.694031,323.206116 760.173096,312.576721 759.134338,302.017059 
	C757.495911,285.361969 748.168030,278.191711 732.862549,272.351990 
	C721.776794,268.122253 711.118713,272.035919 700.529358,274.426605 
	C693.055054,276.114014 686.151062,279.583191 680.525757,285.161682 
	C668.753418,296.836090 657.462708,296.984497 644.572815,286.236389 
	C631.212646,275.096252 621.403748,261.085052 611.802612,246.867523 
	C607.520691,240.526917 603.575928,233.986328 598.661255,228.051636 
	C583.425232,209.653336 564.508789,202.306564 540.942566,207.930466 
	C534.133728,209.555344 527.496155,211.781509 520.694458,213.416473 
	C514.433594,214.921448 509.281433,214.180054 504.649231,208.681885 
	C498.729156,201.655136 490.062134,198.256317 481.824432,194.691681 
	C458.878937,184.762634 434.823730,178.727493 409.983887,176.480453 
	C387.578247,174.453629 365.623352,176.452911 344.364532,185.162003 
	C328.913971,191.491638 312.430176,194.385223 295.686707,195.197525 
	C290.205597,195.463440 284.790680,196.398712 279.260864,196.275696 
	C266.441345,195.990463 253.682495,195.168076 241.011200,193.147552 
	C238.005432,192.668243 235.199570,191.794693 232.762177,189.248474 
	C230.283035,173.075333 230.957947,157.384430 234.805008,141.884171 
	C235.844543,137.695740 237.496979,133.652847 241.062225,130.782639 
	C246.115814,126.714233 251.255768,122.745651 256.181152,118.526970 
	C267.160889,109.122620 280.166992,107.580124 293.979156,107.654785 
	C304.600372,107.712196 314.535950,110.888741 324.779144,112.631676 
	C331.252167,113.733101 332.117706,113.033974 334.711304,106.987274 
	C340.970612,92.394539 348.848053,78.752914 360.504456,67.674850 
	C363.287628,65.029747 366.666260,63.245136 370.279816,61.828506 
	C381.050995,57.605911 391.750031,53.174095 402.997894,50.342155 
	C406.993927,49.336052 411.079346,48.308990 415.165527,48.098320 
	C439.684052,46.834259 463.842651,48.757858 487.480591,56.061634 
	C499.868042,59.889183 511.719940,64.758492 523.324646,70.516312 
	C536.291748,76.950104 546.933105,86.469551 558.138550,95.263100 
	C568.766785,103.603638 579.731934,111.527122 592.577026,115.917007 
	C608.812744,121.465645 625.294250,121.279144 641.926025,116.671631 
	C660.208435,111.606857 678.824524,107.488945 697.635315,105.416367 
	C714.381775,103.571228 730.985962,99.678207 748.077271,100.928108 
	C763.323669,102.043098 778.557739,103.143852 793.084900,108.218399 
	C800.310486,110.742401 808.187256,111.379395 814.957581,114.723824 
	C829.346924,121.831825 845.156372,126.128517 858.140320,135.985672 
	C862.076050,138.973679 865.549072,142.612900 869.019287,146.163712 
	C876.813416,154.138824 884.286255,162.435516 892.237793,170.247147 
	C900.796326,178.655090 905.861816,189.494644 912.954956,198.926102 
	C929.182739,220.503433 936.235596,245.468414 939.913940,272.012634 
	C944.254517,303.335175 938.332214,332.890778 928.216675,362.102325 
	C925.120483,371.043518 921.961975,379.919159 917.381897,388.309967 
	C910.168640,401.525085 898.609680,409.388397 885.961365,416.562378 
	C864.255798,428.873505 840.829102,434.945892 816.309204,437.941040 
	C807.068665,439.069824 797.946899,441.170685 788.393799,442.935059 
	C787.500061,443.420471 786.858521,443.682587 786.864502,444.706787 
	C791.293701,446.282959 795.711487,445.869263 800.551514,445.907562 
	C801.805237,445.980804 802.607300,445.996399 803.708374,446.046448 
z"/>
<path fill="#272626" opacity="1.000000" stroke="none" 
	d="
M297.815063,748.671570 
	C296.161194,756.751953 294.442749,764.383606 293.036224,772.072327 
	C292.215607,776.558289 289.888977,779.000488 285.428925,780.100708 
	C258.949127,786.632812 234.612137,782.800171 213.011017,765.449036 
	C198.964737,754.166382 188.699783,739.759277 178.241547,725.232971 
	C166.047775,708.296021 159.143295,689.147827 151.298294,670.300171 
	C148.023590,662.432556 142.998611,655.369507 140.130127,647.439392 
	C133.687286,629.627686 127.969772,611.592346 125.682106,592.596191 
	C123.252586,572.421936 121.333878,552.276184 121.822258,531.912231 
	C121.979370,525.360901 122.583359,518.922607 124.021805,512.624817 
	C128.471054,493.145081 129.938232,473.140747 134.716751,453.716614 
	C137.061493,444.185486 140.653122,435.467712 146.786835,427.677155 
	C153.778961,418.796295 160.884171,409.901306 166.826935,400.321808 
	C175.590775,386.194916 189.522568,379.747406 203.662857,373.364136 
	C208.660843,371.107880 213.945908,369.496552 219.039139,367.440277 
	C227.066086,364.199615 235.286224,364.367004 243.588318,365.843201 
	C254.210327,367.731934 265.228516,368.005219 275.219116,372.582367 
	C289.952332,379.332428 295.313538,382.468597 296.198792,399.730988 
	C297.163666,418.545135 301.629913,436.904938 305.728027,455.242493 
	C307.161530,461.657043 307.542755,468.150024 307.785095,474.555084 
	C308.245789,486.729156 309.690918,498.780670 311.278503,510.800293 
	C312.476471,519.870117 311.294922,528.785095 310.603485,537.664917 
	C308.779968,561.084045 306.656250,584.562622 308.411499,607.958923 
	C309.603241,623.843750 309.301208,639.744385 310.450714,655.633423 
	C311.788940,674.130737 308.846008,692.718567 304.611786,710.981079 
	C301.764160,723.262878 300.083954,735.815369 297.815063,748.671570 
z"/>
<path fill="#CDCCCC" opacity="1.000000" stroke="none" 
	d="
M232.429413,189.271408 
	C243.415924,191.456467 254.434540,192.455627 265.536224,193.420029 
	C277.760162,194.481903 289.794220,193.539017 301.857086,192.470093 
	C320.224731,190.842499 337.660919,185.486130 354.900635,179.062592 
	C365.033112,175.287201 375.825806,174.164658 386.765839,173.839584 
	C424.505585,172.718292 459.979034,181.249817 493.652527,197.889297 
	C499.178558,200.619934 504.399841,203.902969 508.140686,209.080429 
	C510.858276,212.841705 514.853210,212.455612 518.617126,211.535645 
	C526.052612,209.718338 533.354553,207.343750 540.807556,205.611877 
	C557.102905,201.825256 572.640930,203.408615 586.550110,213.445770 
	C595.836975,220.147400 603.218384,228.720932 609.173889,238.466751 
	C617.529541,252.140106 626.854492,265.111542 637.663696,276.921387 
	C642.705811,282.430328 648.511536,287.262848 655.556763,290.265198 
	C663.401367,293.608215 670.327332,292.613403 676.049072,286.353424 
	C685.098389,276.452789 696.662781,272.246429 709.419739,269.995483 
	C717.675781,268.538727 725.780457,267.057922 733.981323,270.196167 
	C742.646729,273.512146 750.348694,277.952454 756.321655,285.410034 
	C761.403931,291.755524 761.211487,299.333771 761.779480,306.436279 
	C763.174988,323.885071 766.341736,341.020569 769.344849,358.199219 
	C770.262329,363.447174 771.794006,368.591095 774.201538,373.381592 
	C781.100647,387.109039 779.718750,401.163483 775.696045,415.205322 
	C773.409058,423.188599 770.653564,431.051483 767.792114,438.852325 
	C765.014954,446.423401 766.502991,453.056030 770.928223,459.520020 
	C775.588806,466.327850 777.986633,474.229584 780.250793,482.018555 
	C781.210876,485.321533 780.280457,489.261444 779.846069,492.868073 
	C777.218323,514.683655 776.057129,536.609863 776.216797,558.541199 
	C776.316956,572.292297 777.514099,586.064514 779.381531,599.759888 
	C781.795898,617.466431 790.320435,632.276611 799.783203,646.943909 
	C809.460938,661.944580 815.629944,678.073242 815.144165,696.629944 
	C814.508057,720.932007 810.192566,744.402893 804.128296,767.877014 
	C797.821350,792.290527 786.549683,814.524841 776.694336,837.407959 
	C773.416321,845.019226 769.409058,852.318481 765.672119,859.728638 
	C764.656799,861.741882 763.633484,863.642395 765.865601,865.862671 
	C762.968933,869.872253 758.351807,871.046082 754.084045,872.796387 
	C751.789429,873.737549 749.397461,874.473938 747.001465,875.126526 
	C744.199707,875.889587 740.116516,878.829590 738.986938,877.247742 
	C737.206604,874.754456 737.994751,870.518921 739.109192,867.191589 
	C742.514099,857.025635 744.387939,846.609558 745.280090,835.930603 
	C747.172729,813.276855 747.923889,790.704468 742.058594,768.445312 
	C735.245056,742.587646 733.734436,716.292358 734.825073,689.680481 
	C735.436890,674.752319 732.222168,659.719055 735.288452,644.847473 
	C739.892456,622.518250 739.443909,599.828857 740.635315,577.253845 
	C741.273071,565.168640 739.504395,553.346680 736.375610,541.699280 
	C734.076477,533.140137 732.702637,524.457275 732.927673,515.075317 
	C733.154968,502.022736 732.681213,489.448578 733.746033,476.464600 
	C733.764648,464.607666 736.712891,453.588623 738.398865,442.412354 
	C741.301514,423.171539 741.509338,403.979309 738.375916,384.752533 
	C735.800781,368.950806 734.442383,353.098175 735.134216,337.023743 
	C735.531982,327.781403 730.170410,318.642029 720.924988,314.789337 
	C717.970581,313.924896 715.320312,313.352234 712.228271,313.742279 
	C708.936096,313.442688 707.066406,315.134583 704.916687,316.899292 
	C695.764771,324.412292 691.260803,334.315125 688.377197,345.547791 
	C686.201355,354.023743 682.915344,362.264130 679.547058,370.369843 
	C676.503296,377.694275 670.049316,382.301880 663.895081,386.758484 
	C659.704529,389.793091 654.612488,388.232239 651.806030,383.930756 
	C643.947632,371.886230 637.365540,359.347290 635.935852,344.646088 
	C635.587585,341.064453 634.238403,337.551941 633.130188,334.077545 
	C629.355286,322.242889 624.252747,310.828308 622.051697,298.489563 
	C621.755310,296.828430 621.381165,294.296478 619.355225,294.130646 
	C617.325256,293.964508 617.028931,296.579987 615.978760,297.979767 
	C609.076782,307.179047 605.656982,318.358429 599.065491,327.737274 
	C598.046936,329.186523 597.508423,331.010773 595.593750,332.047821 
	C595.097168,330.938629 594.572815,329.968903 594.217163,328.940826 
	C591.567871,321.283051 588.265991,313.992615 584.525513,306.740509 
	C578.056091,294.197418 574.250610,280.476227 570.177124,266.947449 
	C566.686707,255.355362 561.720093,244.625504 552.302673,236.498520 
	C548.972717,233.624786 545.493225,233.266525 541.809082,235.687973 
	C534.461975,240.516907 526.806824,244.811722 520.450317,251.144119 
	C512.796631,258.768707 504.471222,265.714874 496.574432,273.102081 
	C494.399475,275.136719 493.358002,273.808228 492.318970,272.232056 
	C488.840332,266.954865 485.415070,261.641388 482.041809,256.296082 
	C476.086365,246.858948 469.453766,237.980499 461.873291,229.742722 
	C452.288361,219.326660 439.666931,216.918518 426.665436,216.246979 
	C409.835876,215.377686 393.590973,219.438446 377.304260,223.330460 
	C360.189575,227.420364 342.952515,231.910034 325.521271,233.486160 
	C310.506012,234.843857 294.484039,237.370148 280.054962,231.617645 
	C265.674927,225.884689 250.062332,221.145630 240.165497,207.572540 
	C236.239639,202.188431 232.698196,196.601624 232.429413,189.271408 
z"/>
<path fill="#EE991E" opacity="1.000000" stroke="none" 
	d="
M611.510376,374.630615 
	C607.652893,369.745972 605.612061,369.251526 601.604614,372.012238 
	C592.783997,378.088684 585.130615,376.750000 578.959839,367.849518 
	C572.256287,358.180573 569.476990,347.024231 567.199951,335.715149 
	C562.639954,313.067535 546.596497,303.351440 524.366394,309.723602 
	C513.022522,312.975281 502.752136,318.331818 493.180359,325.146149 
	C484.444611,331.365295 475.619904,337.135803 464.175598,337.082611 
	C451.467987,337.023499 441.495972,331.146332 432.556732,323.024170 
	C417.461792,309.308868 407.466187,292.093842 399.409760,273.624146 
	C394.063568,261.367767 385.891449,257.714111 373.357269,262.043823 
	C365.368805,264.803314 358.450317,269.372314 351.947876,274.641449 
	C349.923737,276.281677 348.373138,277.951019 349.937408,280.987091 
	C357.555023,295.772247 359.847168,311.979767 361.953461,328.159302 
	C365.175690,352.910645 366.283905,377.805756 367.246429,402.749207 
	C368.609100,438.064392 367.875244,473.363251 367.811249,508.664764 
	C367.770844,530.950500 366.726410,553.239258 365.884186,575.517273 
	C365.067596,597.117615 364.039124,618.711487 362.910706,640.298157 
	C361.695770,663.539246 360.372192,686.776062 358.882965,710.001099 
	C357.362152,733.718994 355.680634,757.427734 353.879364,781.126038 
	C352.809082,795.207336 351.437195,809.267212 350.058472,823.322754 
	C349.664551,827.338745 350.665985,829.752747 354.850281,831.248108 
	C363.829529,834.456909 373.119598,836.333496 382.325470,838.602600 
	C384.313019,839.092529 385.921692,838.541199 387.765167,837.198242 
	C386.301483,849.195618 385.027466,861.455261 380.382233,873.045593 
	C378.713135,877.210144 376.656036,877.992920 372.349823,876.595642 
	C362.583649,873.426636 352.484344,871.347839 342.324158,869.925415 
	C336.773560,869.148376 331.697662,867.525818 326.697113,865.154236 
	C324.296143,864.015686 323.974548,861.893188 323.332947,859.934937 
	C319.739868,848.968933 318.696289,837.713318 317.952972,826.168518 
	C316.344757,801.191040 317.574188,776.240234 317.016388,751.288574 
	C316.780853,740.752625 319.774628,730.565552 320.460754,720.142761 
	C321.157776,709.554688 323.584412,699.208252 324.148773,688.579956 
	C324.799072,676.333679 326.496033,664.144104 327.671570,651.923462 
	C327.910156,649.443542 328.012085,646.927917 327.902557,644.440796 
	C327.198334,628.451111 327.455536,612.309875 329.428650,596.605103 
	C332.428406,572.728577 332.071991,548.660583 335.519775,524.806885 
	C337.717010,509.605011 336.082581,493.916260 334.687134,478.468506 
	C333.567719,466.076660 332.264221,453.711700 331.968994,441.230591 
	C331.447754,419.194794 328.933502,397.328583 325.630707,375.512482 
	C323.915588,364.183685 321.690979,352.992615 319.144684,341.868225 
	C317.559357,334.942139 315.109009,328.172272 312.565796,321.516113 
	C307.528656,308.332855 305.607971,294.578217 304.211731,280.669434 
	C303.233429,270.923859 302.046967,261.196960 300.803284,251.480957 
	C299.872986,244.212936 300.047424,243.655777 307.104431,242.902451 
	C335.937653,239.824539 364.128265,233.657486 392.214294,226.540588 
	C406.836853,222.835266 422.090149,221.903519 437.280365,222.360168 
	C440.299347,222.450912 442.962738,223.584198 445.517853,225.446960 
	C456.979004,233.802567 466.689697,243.506119 472.597473,256.737274 
	C475.988373,264.331604 480.867645,271.165527 485.626129,277.973358 
	C490.569244,285.045319 495.435699,285.004883 501.640411,278.914062 
	C507.220825,273.436127 513.221619,268.387634 519.005066,263.114746 
	C521.710876,260.647858 524.785156,258.424286 526.917297,255.521133 
	C531.933472,248.690842 539.198669,244.991898 546.018066,240.579437 
	C549.326172,238.438889 550.754883,239.381119 553.065125,242.441147 
	C563.937683,256.842163 566.389832,274.387421 571.698792,290.833008 
	C576.285461,305.041199 580.627075,319.277893 588.408386,332.189819 
	C590.024719,334.871857 590.864868,338.011444 592.193726,340.879517 
	C593.765503,344.271942 596.151428,344.381927 598.315796,341.676819 
	C600.166504,339.363770 601.879272,336.759033 602.911194,334.005310 
	C606.358643,324.805603 612.286987,316.690735 614.581421,306.995789 
	C615.011902,305.176636 615.953674,303.363281 618.223938,303.528290 
	C620.218872,303.673248 620.544739,305.432404 621.137146,307.071014 
	C624.966858,317.663361 624.528870,329.020935 627.054626,339.794586 
	C631.027161,356.739075 636.855530,373.162079 644.641174,388.723175 
	C648.798218,397.031677 658.487244,398.502136 666.885315,393.920441 
	C676.176819,388.851318 680.179199,379.876617 684.963623,371.337463 
	C690.498840,361.458313 692.171326,350.368103 695.134888,339.690155 
	C697.255737,332.048492 701.997559,325.970459 707.017456,320.315826 
	C710.434631,316.466492 715.848755,317.420258 720.176575,319.342133 
	C724.109009,321.088440 727.688110,323.917633 728.196960,328.786530 
	C730.273499,348.652466 732.278870,368.489166 732.050049,388.549988 
	C731.927368,399.303650 733.964233,410.081909 735.020996,421.272980 
	C735.984131,427.537842 735.526978,433.414062 735.243408,439.727875 
	C734.594421,442.693359 734.151978,445.211823 733.505981,448.057800 
	C733.108887,435.244293 732.855530,422.140594 729.123169,409.342773 
	C726.221375,399.392883 722.550781,389.789978 717.762390,380.614441 
	C715.450684,376.184723 714.633057,376.081177 710.867920,379.737854 
	C702.407654,387.954498 692.580750,394.100800 681.944519,399.046814 
	C663.272034,407.729767 646.624939,404.944244 631.309143,391.049927 
	C625.962097,386.199036 621.479553,380.149658 614.037537,377.035950 
	C613.458313,377.017059 613.044617,376.864899 612.857666,376.748230 
	C612.670776,376.631592 612.336487,376.345978 612.189209,376.183655 
	C612.041870,376.021332 611.792419,375.662384 611.697571,375.466187 
	C611.602722,375.270020 611.503113,374.847534 611.510376,374.630615 
z"/>
<path fill="#E6E5E5" opacity="1.000000" stroke="none" 
	d="
M296.216187,321.905975 
	C296.245300,313.478271 293.284210,306.230469 290.220734,299.110565 
	C287.751068,293.370972 286.003937,287.570343 285.694214,281.332123 
	C285.462341,276.662109 284.780640,272.060028 283.504761,267.548431 
	C281.262054,259.618256 283.280823,251.650909 283.356689,243.700302 
	C283.369507,242.358704 284.157288,242.124313 285.342560,242.292480 
	C287.309326,242.571518 289.288116,242.848511 291.269165,242.917862 
	C292.914673,242.975494 293.004395,243.907944 293.138428,245.186081 
	C294.746246,260.518402 296.412476,275.844604 298.050812,291.173737 
	C299.778625,307.339874 304.564240,322.709442 310.186157,337.862244 
	C314.272491,348.876251 315.971619,360.455414 317.921143,371.936829 
	C319.910522,383.653015 321.896667,395.440002 322.655121,407.274750 
	C323.376160,418.526215 325.301514,429.676178 325.169098,441.000336 
	C324.972504,457.818665 327.902588,474.446198 328.644653,491.195465 
	C329.269135,505.290680 329.703857,519.433777 327.676270,533.534363 
	C326.401520,542.399475 325.489258,551.362305 325.172882,560.308167 
	C324.762695,571.905762 324.606598,583.465637 322.120911,594.890747 
	C321.427704,598.076904 322.098938,601.537415 321.893616,604.856506 
	C321.290527,614.606934 320.956055,624.350708 321.945892,634.544312 
	C323.044189,645.212646 322.262848,655.462891 322.482788,665.699219 
	C322.557434,669.172852 322.569305,672.651489 322.236908,676.573486 
	C316.747528,705.759583 313.534027,734.762817 311.535034,763.887390 
	C311.097473,770.262634 312.543732,776.751038 312.929993,783.213867 
	C313.387451,790.867126 313.296600,798.397888 312.883209,806.052551 
	C312.112762,820.318909 312.526215,834.625549 314.460236,848.842529 
	C315.352112,855.398865 318.494049,861.124023 320.850098,867.141174 
	C321.567963,868.974548 323.297150,869.628052 325.020844,870.410522 
	C334.508942,874.717834 344.575012,876.686951 354.797516,878.110718 
	C359.221680,878.726929 363.662811,879.280701 368.043671,880.132996 
	C372.925812,881.082764 376.387878,883.414124 377.552063,888.914185 
	C378.715637,894.411316 380.868347,899.698975 382.622467,905.484436 
	C381.699036,907.860657 379.880676,907.981506 378.013794,908.146240 
	C374.134460,908.488525 370.351044,907.781921 366.678925,906.806702 
	C352.593597,903.066162 338.386841,903.759888 324.132782,905.275757 
	C322.630890,905.435486 321.156921,905.706421 319.867188,906.531128 
	C317.980530,907.737549 316.312073,909.191223 316.677612,911.709229 
	C317.046478,914.249756 318.987122,915.160034 321.254211,915.598267 
	C328.231812,916.947144 335.182404,917.752319 342.367706,918.038086 
	C357.397583,918.635803 372.537476,918.210449 387.461609,920.939331 
	C392.125305,921.792053 396.289032,923.725647 400.936493,925.705994 
	C409.121338,930.321960 416.801361,930.225098 424.692291,925.156738 
	C429.909302,922.327271 435.290253,921.488281 440.720398,920.698853 
	C447.052826,919.778259 453.422455,919.133484 459.010498,918.021790 
	C452.425018,916.565430 444.910095,916.709351 437.580139,915.314575 
	C435.522552,914.922974 433.764954,914.262695 432.292908,912.238220 
	C431.216248,906.212646 433.727386,900.611755 432.528412,894.682190 
	C431.940460,891.774475 435.149017,890.897583 437.961365,891.392822 
	C463.512878,895.892395 489.205414,898.460449 515.188843,899.210876 
	C530.670837,899.658020 546.100830,900.075928 561.524841,898.959290 
	C570.765381,898.290222 579.960632,896.892273 589.148560,895.622009 
	C603.058289,893.698853 617.010010,894.134949 630.962280,894.647949 
	C645.417297,895.179382 659.835999,895.511719 674.301941,894.259216 
	C686.216187,893.227722 698.178650,892.837646 710.049805,891.164368 
	C718.818176,889.928406 727.476685,888.565857 735.264282,883.942261 
	C736.671326,883.106812 738.311157,882.423950 739.917175,882.200684 
	C752.565918,880.442627 763.485107,874.541443 774.102234,867.978821 
	C776.195923,866.684814 776.871826,867.295349 777.786438,869.134521 
	C779.837036,873.258240 779.800598,877.841370 780.851807,882.180298 
	C782.761902,890.064392 784.854919,897.873352 785.868286,906.005615 
	C787.631653,920.156860 782.243042,931.107971 772.856262,941.048462 
	C761.789673,952.767761 748.029297,959.645935 733.098328,964.749939 
	C716.424133,970.450012 699.706726,975.985901 682.564758,980.158997 
	C672.382202,982.637878 661.981262,983.694092 651.602783,983.872131 
	C628.616272,984.266479 605.587219,984.750732 582.633057,983.802673 
	C554.317261,982.633057 525.953430,984.589355 497.739075,982.702881 
	C473.317719,981.070007 448.790436,980.141541 424.558136,975.395691 
	C394.425232,969.494202 364.775208,961.913269 336.440277,950.314148 
	C315.299194,941.659973 302.566833,925.283325 297.636292,902.130310 
	C292.451141,877.781799 293.127960,853.348083 293.050995,828.850220 
	C293.020782,819.216309 295.198975,809.730957 297.130524,800.351929 
	C299.380219,789.427979 299.231995,778.215027 301.911835,767.380127 
	C305.777710,751.750244 307.961487,735.749268 309.539124,719.831360 
	C311.902161,695.988953 317.226959,672.347473 315.763214,648.214905 
	C315.516205,644.142578 316.027313,640.081482 315.323517,635.964172 
	C314.404205,630.585693 316.051849,625.048706 315.846985,619.681824 
	C315.161438,601.719604 314.544830,583.760986 315.054504,565.795959 
	C315.501312,550.047058 317.657745,534.397339 317.980164,518.619568 
	C318.239166,505.946442 315.266815,493.733765 313.616394,481.328949 
	C312.399353,472.181854 310.734222,463.055359 310.208191,453.865906 
	C309.639282,443.927734 307.184906,434.274689 306.717865,424.329834 
	C306.362366,416.760193 304.862244,409.251770 304.147217,401.690002 
	C302.590790,385.230225 301.202942,368.754456 299.766174,352.283478 
	C299.549591,349.800415 299.440399,347.307953 299.149109,344.432800 
	C297.847137,336.839417 296.789276,329.619446 296.216187,321.905975 
z"/>
<path fill="#E6E6E6" opacity="1.000000" stroke="none" 
	d="
M133.989624,439.617157 
	C124.089714,464.214233 123.492859,490.265839 118.901291,515.528748 
	C115.745369,532.892700 116.727028,550.393066 117.225647,567.788513 
	C117.578995,580.115601 120.286659,592.380554 122.029564,604.661072 
	C124.070572,619.042114 126.854034,633.340393 133.024399,646.532837 
	C144.274796,670.586609 150.191315,697.009583 164.118835,719.710449 
	C172.182297,732.853333 180.413559,746.186951 191.466080,757.414185 
	C199.999817,766.082825 208.618759,774.467773 219.040771,780.891968 
	C229.006729,787.034912 240.036804,790.092529 251.417984,790.806641 
	C265.191956,791.670898 279.157806,792.011841 293.338074,785.276733 
	C287.142090,808.299194 284.956512,830.503784 285.789917,853.467712 
	C284.111359,855.424866 282.602356,854.597412 281.221497,853.624878 
	C272.387421,847.403381 263.389801,841.266724 254.008011,836.085999 
	C239.939880,828.317444 226.844193,818.757568 211.665802,812.935364 
	C203.304626,809.728088 195.380463,805.647095 188.526825,799.455200 
	C181.887604,793.456970 175.084869,787.587097 167.901154,782.174805 
	C159.571976,775.899597 154.894318,766.631775 149.994965,757.821716 
	C143.546234,746.225586 136.108841,735.150513 131.496994,722.528625 
	C126.310936,708.335083 120.673752,694.310059 115.780685,680.000671 
	C110.254578,663.840027 102.115646,649.037109 91.408661,635.245911 
	C88.419800,620.377075 86.542068,605.684875 84.849533,590.927185 
	C81.784576,564.203064 82.870346,537.451599 83.135628,510.705963 
	C83.228844,501.308075 84.730568,491.926849 86.288307,482.609131 
	C88.655174,468.451538 90.418991,454.181061 93.189636,440.106323 
	C96.086441,425.390625 100.094124,410.865753 106.497742,397.250763 
	C114.094093,381.099854 121.628555,364.835236 133.218796,350.967529 
	C140.789795,341.908813 149.009491,333.626770 158.889481,326.907501 
	C164.474167,323.109406 168.980774,317.752991 174.118759,313.265350 
	C184.158203,304.496674 196.109543,300.225922 209.104721,297.896484 
	C219.328094,296.063904 229.551407,296.238922 239.819656,295.929993 
	C250.586975,295.606049 261.335327,294.659668 272.092957,294.001495 
	C277.186523,293.689850 280.168457,295.338318 282.352051,300.743469 
	C289.817505,319.222870 291.287720,338.551941 292.106659,358.531281 
	C290.474731,360.853851 288.548828,360.414246 286.567932,359.810425 
	C284.014343,359.031952 281.553345,357.993347 279.102448,356.972717 
	C254.177902,346.593292 229.040573,348.828400 203.733383,355.346100 
	C193.489441,357.984314 183.655151,361.411194 175.000732,367.622192 
	C166.576019,373.668304 160.788986,382.129761 155.503174,390.731750 
	C150.289795,399.215881 145.072372,407.788544 141.119766,416.988983 
	C138.038467,424.161316 135.275162,431.462219 133.989624,439.617157 
z"/>
<path fill="#ED991E" opacity="1.000000" stroke="none" 
	d="
M421.809814,845.464478 
	C440.157532,846.975708 458.511169,848.810547 476.970306,848.981995 
	C492.262543,849.124084 507.586853,849.601990 522.845337,848.863892 
	C564.609253,846.843811 605.589539,840.604248 644.157104,823.310059 
	C661.533630,815.518188 673.689514,801.935913 683.371948,786.069580 
	C700.967407,757.236328 710.085327,725.278870 716.997070,692.563660 
	C717.203430,691.587036 717.353149,690.594360 717.625000,689.636292 
	C721.468872,676.087891 721.178345,662.932373 717.332886,649.091309 
	C712.049133,630.073242 712.541504,610.435303 714.521973,590.702698 
	C716.282776,573.159180 720.712280,556.379333 725.356628,539.554260 
	C725.781067,538.016602 725.660828,536.153320 727.662109,534.997131 
	C729.889771,549.426025 736.424683,563.122070 735.236877,578.318420 
	C733.992981,594.232483 736.348450,610.323486 733.777832,626.189209 
	C729.822510,650.602173 728.748230,675.185364 728.896790,699.842712 
	C729.057678,726.541199 732.822754,752.837646 737.631104,779.068909 
	C742.345825,804.789185 744.016541,830.625549 736.202881,856.220886 
	C735.388489,858.888611 735.250549,861.797729 735.052429,864.612610 
	C734.175903,877.064636 730.684509,880.474060 718.457642,883.041565 
	C704.399353,885.993774 690.159119,886.037537 675.988342,887.344055 
	C650.783630,889.667603 625.608154,889.741455 600.381287,890.118469 
	C587.809204,890.306274 575.499329,894.895630 562.826172,893.706909 
	C542.773804,891.825989 522.667114,891.515808 502.575256,891.182922 
	C492.132843,891.010010 481.668488,892.426208 471.216339,890.905151 
	C459.387726,889.183716 447.499512,887.803223 435.744751,885.679260 
	C431.573029,884.925537 427.692261,881.247253 427.619965,877.184875 
	C427.427063,866.342163 422.407227,856.550720 421.809814,845.464478 
z"/>
<path fill="#CCCCCB" opacity="1.000000" stroke="none" 
	d="
M91.097641,635.378479 
	C95.350655,635.411255 97.345291,638.576477 99.286201,641.674988 
	C109.404205,657.827454 116.922440,675.080078 122.768227,693.270142 
	C131.761749,721.254883 144.844742,747.383057 161.189484,771.869629 
	C165.581024,778.448730 172.242737,782.371887 177.984192,787.356018 
	C187.367950,795.501831 196.003922,804.988403 208.195251,808.972839 
	C223.750565,814.056702 236.617249,824.096069 250.954941,831.403320 
	C262.999634,837.541992 273.757996,846.204468 285.399811,853.837830 
	C286.091888,855.890137 286.915558,858.415649 285.485565,859.648254 
	C283.868774,861.041870 281.756927,859.171631 280.008423,858.375366 
	C248.776245,844.153198 218.438263,828.152344 190.221207,808.654480 
	C176.887787,799.441223 164.980270,787.969543 154.254181,775.624146 
	C130.407532,748.177429 113.293396,716.802551 101.945930,682.396729 
	C96.952492,667.256470 94.011604,651.482849 91.097641,635.378479 
z"/>
<path fill="#F0EFEE" opacity="1.000000" stroke="none" 
	d="
M387.081909,895.339233 
	C382.981537,887.525391 381.529816,879.883545 385.304382,871.756226 
	C391.499847,858.416199 392.581085,843.872375 394.718872,829.610474 
	C397.199005,813.064758 400.695862,796.652710 401.809204,779.925720 
	C402.193542,774.151489 402.668335,768.439270 403.930328,762.788513 
	C404.295258,761.154419 404.806580,759.675537 406.420319,757.735413 
	C409.261505,768.452087 412.199860,778.529419 413.867371,788.958618 
	C415.378143,798.407471 414.805420,807.906982 414.535858,817.354736 
	C414.176941,829.932800 416.659546,841.953308 419.477386,854.081848 
	C421.570007,863.089050 422.356750,872.399414 423.734680,881.573303 
	C423.979187,883.201355 424.270203,884.822449 424.390564,886.838501 
	C424.705872,888.495667 424.233582,889.669312 423.363861,890.397827 
	C415.095428,897.323364 405.927551,901.731201 394.753357,900.169800 
	C391.641541,899.735046 389.140686,898.252747 387.081909,895.339233 
z"/>
<path fill="#CDCCCC" opacity="1.000000" stroke="none" 
	d="
M134.270020,439.798584 
	C132.339096,437.345276 132.830917,434.525299 133.616547,431.807770 
	C140.245255,408.878448 152.052841,388.719910 167.734390,370.976746 
	C175.982803,361.643982 187.643829,357.620117 199.411072,354.015900 
	C217.998596,348.322601 236.977524,347.040527 256.163300,348.096375 
	C265.556030,348.613220 274.060150,353.035645 282.886871,355.952667 
	C285.719269,356.888702 288.501617,357.976105 291.692963,358.996094 
	C294.074738,365.032471 292.229828,371.376007 294.447174,378.224335 
	C280.264618,366.307892 264.339203,361.061554 247.726517,357.845490 
	C237.081314,355.784698 226.292938,356.026367 215.987213,360.272400 
	C206.828308,364.045959 197.721268,367.877075 188.857834,372.385162 
	C176.347549,378.748047 168.378326,389.658905 159.821426,399.920044 
	C149.734848,412.015625 140.141174,424.561554 134.270020,439.798584 
z"/>
<path fill="#CDCDCD" opacity="1.000000" stroke="none" 
	d="
M401.128235,925.561340 
	C395.440063,924.885498 389.436157,924.360474 383.677094,922.881775 
	C373.864410,920.362183 363.867889,922.092590 354.045044,920.909119 
	C347.575439,920.129639 341.196869,920.350281 334.719299,920.477051 
	C328.925293,920.590393 323.025146,918.530151 317.287231,916.997070 
	C314.047058,916.131287 313.066132,912.620361 313.535736,910.072205 
	C314.233063,906.288269 317.709473,903.773865 321.303925,903.310669 
	C335.501862,901.480835 349.767700,900.661926 363.928040,903.775879 
	C369.783020,905.063477 375.586151,906.552856 382.159302,905.917175 
	C387.435577,913.588745 393.265167,920.296692 401.128235,925.561340 
z"/>
<path fill="#E7E6E6" opacity="1.000000" stroke="none" 
	d="
M386.773834,895.484497 
	C394.380707,898.902710 402.057526,899.261230 410.062469,896.065491 
	C415.187256,894.019714 419.342194,890.558899 424.083862,887.476562 
	C426.665771,895.602051 425.057739,904.028564 424.389313,912.400635 
	C423.786499,919.950439 415.764374,924.500183 408.615387,920.517700 
	C398.667419,914.976074 390.143280,907.547363 386.773834,895.484497 
z"/>
<path fill="#CECDCD" opacity="1.000000" stroke="none" 
	d="
M431.890015,912.320923 
	C443.230225,914.739136 455.019531,914.020569 466.159637,917.936340 
	C452.932709,921.771545 439.399384,923.305847 425.459839,925.030396 
	C428.418457,921.529785 430.891571,917.539307 431.890015,912.320923 
z"/>
<path fill="#EDB432" opacity="1.000000" stroke="none" 
	d="
M733.769165,476.386108 
	C733.928162,488.667999 734.841614,501.318573 733.123718,514.257080 
	C731.602783,501.942993 731.252502,489.317627 733.769165,476.386108 
z"/>
<path fill="#4D2D17" opacity="1.000000" stroke="none" 
	d="
M322.258270,676.670593 
	C321.991730,663.319702 321.949890,649.619202 321.982056,635.453247 
	C322.348785,635.748291 322.901855,636.510986 322.895447,637.269043 
	C322.785767,650.286560 323.624420,663.315247 322.258270,676.670593 
z"/>
<path fill="#483527" opacity="1.000000" stroke="none" 
	d="
M296.056580,321.981079 
	C298.104584,328.566040 298.523865,335.871582 299.079742,343.597290 
	C296.442474,337.072937 296.225372,329.775146 296.056580,321.981079 
z"/>
<path fill="#B08E6E" opacity="1.000000" stroke="none" 
	d="
M735.221924,439.831299 
	C735.006165,434.348572 734.975464,428.522278 734.980103,422.196411 
	C736.292480,427.601929 737.114868,433.516968 735.221924,439.831299 
z"/>
<path fill="#957054" opacity="1.000000" stroke="none" 
	d="
M787.104187,444.736389 
	C785.672668,445.290833 784.330200,445.800903 782.942932,444.727417 
	C784.261658,443.540466 785.780701,443.221008 787.662109,442.980957 
	C787.747192,443.521698 787.477905,444.001678 787.104187,444.736389 
z"/>
<path fill="#3A2D23" opacity="1.000000" stroke="none" 
	d="
M712.329773,313.960754 
	C714.673096,312.472931 717.411560,312.383453 720.345032,314.434692 
	C717.901794,315.255554 715.376892,314.134155 712.329773,313.960754 
z"/>
<path fill="#957054" opacity="1.000000" stroke="none" 
	d="
M803.808960,445.864044 
	C803.153931,446.099701 802.299438,446.135010 801.227051,446.021301 
	C801.822693,445.138123 802.702271,445.228333 803.808960,445.864044 
z"/>
<path fill="#ED991E" opacity="1.000000" stroke="none" 
	d="
M727.863159,532.724854 
	C726.944824,531.934448 726.979126,530.638306 727.321777,528.929077 
	C727.614136,529.811523 727.786987,531.079041 727.863159,532.724854 
z"/>
<path fill="#F3F1EE" opacity="1.000000" stroke="none" 
	d="
M422.343689,567.396118 
	C420.157379,589.450928 415.683105,610.656189 409.849609,631.492371 
	C405.361115,647.524353 399.161957,663.123047 390.109344,677.215637 
	C383.951111,686.802429 374.602142,693.628479 366.400055,701.408813 
	C365.493744,702.268616 364.176819,703.246948 362.821381,702.254761 
	C361.587219,701.351257 361.730347,699.864197 362.096680,698.567078 
	C363.046661,695.203613 364.030609,691.846130 365.130829,688.529297 
	C373.178223,664.268677 378.707581,639.431458 381.891113,614.089844 
	C384.134369,596.233032 388.865753,578.805115 390.661987,560.872559 
	C393.724731,530.296021 393.572876,499.687500 392.020538,469.049744 
	C391.868866,466.056305 391.734650,463.051605 391.817078,460.058289 
	C392.679932,428.727570 387.655670,397.971191 382.833801,367.192993 
	C381.932281,361.438690 381.050385,355.681000 380.212830,349.917114 
	C379.674744,346.214050 380.187103,342.600067 381.449707,339.096832 
	C383.872772,332.373749 387.619049,331.556946 392.850464,336.583435 
	C398.662292,342.167542 402.062408,348.968170 404.074402,356.781830 
	C408.689117,374.703400 412.794800,392.684570 414.255920,411.192963 
	C415.381714,425.453735 416.981812,439.681396 417.878479,453.954712 
	C418.745789,467.760864 421.681549,481.302856 422.299408,495.151825 
	C423.367645,519.096008 425.350433,543.012390 422.343689,567.396118 
z"/>
<path fill="#F3F1EE" opacity="1.000000" stroke="none" 
	d="
M658.311157,507.610443 
	C652.053833,496.977417 651.027832,486.373688 656.317810,475.376587 
	C659.057678,469.680756 661.749817,463.962616 663.438293,457.823212 
	C664.010742,455.741699 663.674927,452.516327 666.939087,452.591949 
	C670.039673,452.663788 672.698730,454.299866 674.004395,457.336182 
	C675.213989,460.149139 675.274536,463.194031 675.124084,466.196136 
	C674.698669,474.682556 676.600647,482.573425 679.751770,490.489105 
	C682.404480,497.153015 681.592651,504.317383 677.926941,510.689087 
	C675.247559,515.346313 668.897400,515.934021 663.341370,512.233521 
	C661.564575,511.050110 660.128113,509.355804 658.311157,507.610443 
z"/>
<path fill="#F3F1ED" opacity="1.000000" stroke="none" 
	d="
M613.913086,377.041443 
	C614.998169,387.444733 617.968079,397.618774 617.099182,408.240387 
	C616.666687,413.526703 615.647095,418.488586 612.027405,422.520264 
	C607.919617,427.095642 603.307739,426.455627 600.423645,421.104279 
	C595.351562,411.693329 594.996277,401.224060 594.493530,391.018463 
	C594.216309,385.391357 598.202209,380.448456 601.859924,376.100372 
	C604.160400,373.365692 607.497559,373.666718 611.110535,374.381897 
	C611.517578,374.413727 611.612427,374.397003 611.626831,374.351074 
	C612.055908,374.282166 612.407288,374.420197 612.753723,375.011597 
	C612.811890,375.304138 612.806091,375.157104 612.733032,375.166138 
	C613.417053,375.331573 613.468750,375.974945 613.784180,376.809448 
	C613.955872,377.064178 613.930359,377.025513 613.913086,377.041443 
z"/>
<path fill="#F3F1EB" opacity="1.000000" stroke="none" 
	d="
M564.087158,769.341309 
	C553.580811,773.211243 544.409851,766.879883 545.664551,757.037903 
	C546.389832,751.348633 550.814697,746.907043 556.480530,746.180969 
	C561.872070,745.489990 567.324280,748.573486 569.480286,753.532715 
	C571.980774,759.284119 570.243103,764.652344 564.087158,769.341309 
z"/>
<path fill="#F3F1EA" opacity="1.000000" stroke="none" 
	d="
M544.749512,625.469482 
	C546.729553,631.584473 545.218689,636.386902 540.520935,640.062927 
	C536.388916,643.296387 530.842529,643.385681 526.460693,640.579285 
	C522.111084,637.793884 520.039185,632.848877 521.005676,627.560547 
	C521.913696,622.592712 525.964417,618.490173 531.127808,617.781189 
	C537.317505,616.931274 541.735291,619.689636 544.749512,625.469482 
z"/>
<path fill="#F4F0E9" opacity="1.000000" stroke="none" 
	d="
M516.948364,760.873657 
	C520.902222,763.906128 522.433594,767.551270 521.121582,772.044861 
	C520.004211,775.871460 517.328186,778.254639 513.385986,778.950439 
	C509.245544,779.681213 505.795227,778.304871 503.401733,774.832764 
	C500.733826,770.962585 500.992126,766.978027 503.681671,763.235657 
	C506.516541,759.291138 510.857178,758.508911 516.948364,760.873657 
z"/>
<path fill="#F4F0E7" opacity="1.000000" stroke="none" 
	d="
M524.061890,413.745300 
	C522.469666,408.728851 523.609070,404.776215 527.557983,401.936920 
	C530.947266,399.499969 534.726257,399.304871 538.354492,401.469727 
	C542.182556,403.753876 543.698364,407.323700 543.014832,411.671661 
	C542.321777,416.080292 539.587585,418.903839 535.263489,419.730255 
	C530.275818,420.683533 526.508850,418.691315 524.061890,413.745300 
z"/>
<path fill="#F09C1F" opacity="1.000000" stroke="none" 
	d="
M509.639526,802.387329 
	C507.307831,808.360107 504.510254,810.305054 499.157928,810.002625 
	C494.654083,809.748230 491.642517,807.350891 490.411560,803.162170 
	C489.178009,798.964600 490.416199,795.234802 494.074982,792.662109 
	C497.487305,790.262512 501.308502,790.159607 504.891388,792.058960 
	C508.760895,794.110229 510.531250,797.515686 509.639526,802.387329 
z"/>
<path fill="#EF9B1F" opacity="1.000000" stroke="none" 
	d="
M513.052246,424.996460 
	C512.133057,431.737549 508.477997,435.177734 503.011383,434.860657 
	C497.622284,434.548096 493.933533,430.488464 493.967194,424.907104 
	C493.999542,419.552887 497.571808,415.484772 502.603210,415.072327 
	C508.339294,414.602112 512.113892,418.037689 513.052246,424.996460 
z"/>
<path fill="#EF9B1F" opacity="1.000000" stroke="none" 
	d="
M490.618286,664.912231 
	C492.440765,660.220276 495.388275,657.827454 500.245544,657.961304 
	C504.102997,658.067566 507.089600,659.584900 508.742828,663.038513 
	C510.605591,666.929688 510.605560,670.802734 507.339020,674.114441 
	C503.852600,677.649048 499.597351,678.081055 495.398621,676.064880 
	C491.030945,673.967529 489.202026,670.205017 490.618286,664.912231 
z"/>
<path fill="#F4EFE4" opacity="1.000000" stroke="none" 
	d="
M502.957825,825.058167 
	C503.495667,820.486450 505.825378,817.975403 510.038696,817.707336 
	C513.293823,817.500183 515.793213,819.088684 517.156921,822.105469 
	C518.434082,824.930908 517.982483,827.636292 515.992065,829.980347 
	C514.142578,832.158386 511.703918,833.156799 508.888824,832.460022 
	C505.305573,831.573120 503.213562,829.243591 502.957825,825.058167 
z"/>
<path fill="#F4EFE5" opacity="1.000000" stroke="none" 
	d="
M502.158173,586.497925 
	C502.292542,580.753723 504.620636,577.568542 508.792694,577.391113 
	C512.989807,577.212708 515.816895,579.374817 516.625610,583.469604 
	C517.444214,587.614868 515.537415,590.722595 511.546051,591.926208 
	C507.007812,593.294617 503.881470,591.265625 502.158173,586.497925 
z"/>
<path fill="#F4EFE5" opacity="1.000000" stroke="none" 
	d="
M536.516846,734.751953 
	C537.459167,739.229431 536.047424,742.324890 532.214111,744.032654 
	C529.164551,745.391174 526.351501,744.599243 524.079407,742.223694 
	C521.044434,739.050598 521.495483,733.976501 524.844666,731.212585 
	C527.987488,728.618896 534.462341,729.124146 536.516846,734.751953 
z"/>
<path fill="#F4EFE5" opacity="1.000000" stroke="none" 
	d="
M507.566589,465.964844 
	C502.507751,466.479095 499.371918,464.446716 498.510193,459.867615 
	C497.775391,455.963104 499.731995,453.080444 503.441010,451.755402 
	C507.254181,450.393158 510.279510,451.901062 512.329590,455.189056 
	C514.766724,459.097870 513.017273,463.198914 507.566589,465.964844 
z"/>
<path fill="#F4F0E5" opacity="1.000000" stroke="none" 
	d="
M540.889282,698.114746 
	C536.553345,693.359741 536.534241,689.074890 540.535889,685.996399 
	C543.891418,683.414856 548.495178,684.094910 551.028320,687.623718 
	C553.107910,690.520752 553.161682,693.570435 550.913879,696.327881 
	C548.297729,699.537292 544.980713,700.339355 540.889282,698.114746 
z"/>
<path fill="#F4EFE5" opacity="1.000000" stroke="none" 
	d="
M503.805664,370.035400 
	C502.951294,364.201447 505.106384,360.611053 509.513763,359.942963 
	C513.410400,359.352264 516.933167,361.659698 517.854309,365.406097 
	C518.819397,369.331207 516.593079,373.332794 512.672607,374.376984 
	C508.748413,375.422119 505.879425,373.849457 503.805664,370.035400 
z"/>
<path fill="#F09D20" opacity="1.000000" stroke="none" 
	d="
M558.603638,801.641541 
	C554.220520,799.705200 552.182312,796.714233 553.549866,792.324524 
	C554.762878,788.430786 558.020142,786.823547 561.790527,787.370239 
	C565.710144,787.938477 567.790222,790.783752 567.918640,794.768433 
	C568.059692,799.148438 564.721191,801.693176 558.603638,801.641541 
z"/>
<path fill="#F09C20" opacity="1.000000" stroke="none" 
	d="
M539.550964,433.401550 
	C543.797485,434.496155 546.029358,436.947998 545.807739,440.995728 
	C545.614746,444.520630 543.464355,446.849030 540.072937,447.696869 
	C536.812134,448.512085 534.165771,447.196869 532.337952,444.467255 
	C528.991638,439.469910 532.431641,433.908966 539.550964,433.401550 
z"/>
<path fill="#F09C20" opacity="1.000000" stroke="none" 
	d="
M500.134186,637.379639 
	C495.406067,638.551697 492.330048,637.069946 490.799255,632.781982 
	C489.327454,628.659302 491.704010,626.128662 494.776184,624.186584 
	C498.200836,622.021606 501.164673,623.427002 503.531799,626.156372 
	C506.540070,629.624878 505.319824,633.823608 500.134186,637.379639 
z"/>
<path fill="#F5EFE2" opacity="1.000000" stroke="none" 
	d="
M549.999023,547.189697 
	C553.513245,546.151855 555.916321,547.089172 556.903748,550.349854 
	C557.589539,552.614502 556.830078,554.650024 554.658752,555.804749 
	C552.566101,556.917603 550.398987,556.743042 548.785522,554.948425 
	C546.301514,552.185425 546.868164,549.588135 549.999023,547.189697 
z"/>
<path fill="#F19E21" opacity="1.000000" stroke="none" 
	d="
M502.199097,744.556580 
	C502.459290,739.201965 504.785339,736.995789 508.282257,738.461304 
	C510.192169,739.261719 511.727112,740.675171 511.739014,742.925537 
	C511.752136,745.405762 510.105682,746.958740 507.952789,747.643250 
	C505.411743,748.451233 503.393860,747.487427 502.199097,744.556580 
z"/>
<path fill="#F19E21" opacity="1.000000" stroke="none" 
	d="
M534.681458,779.585449 
	C531.749512,777.503540 531.238464,775.097473 533.221069,772.605957 
	C534.873657,770.529297 537.293640,770.514465 539.540344,771.582092 
	C541.571594,772.547363 542.341614,774.444214 541.744446,776.571167 
	C540.762146,780.069641 538.079712,780.380920 534.681458,779.585449 
z"/>
<path fill="#F19F21" opacity="1.000000" stroke="none" 
	d="
M503.992767,388.797791 
	C507.030640,387.522583 509.586792,387.534973 511.292267,390.245178 
	C512.330811,391.895569 512.179016,393.757965 510.895294,395.326569 
	C509.470093,397.068085 507.507172,397.312805 505.488190,396.806366 
	C502.002258,395.931976 501.372314,393.098755 503.992767,388.797791 
z"/>
<path fill="#F29F21" opacity="1.000000" stroke="none" 
	d="
M504.251434,706.275085 
	C505.512848,703.571960 507.090546,701.622437 510.025146,702.378540 
	C512.013245,702.890808 513.450806,704.396362 513.766663,706.527649 
	C514.102722,708.795288 512.664551,710.271973 510.910339,711.275757 
	C508.046997,712.914185 505.622467,711.186157 504.251434,706.275085 
z"/>
<path fill="#F6EDD9" opacity="1.000000" stroke="none" 
	d="
M537.142700,812.849854 
	C533.242920,811.450684 531.982666,809.012634 534.233765,805.833923 
	C535.937622,803.427979 538.502502,803.491150 540.825867,805.283875 
	C542.098145,806.265686 542.658936,807.690857 542.267090,809.282837 
	C541.668030,811.716248 539.933105,812.787903 537.142700,812.849854 
z"/>
<path fill="#F6EEDB" opacity="1.000000" stroke="none" 
	d="
M493.937500,725.097900 
	C495.422302,728.168274 494.644501,730.343933 491.967285,731.571045 
	C489.763306,732.581177 487.713165,731.970276 486.356903,729.851624 
	C485.243469,728.112122 485.389740,726.322937 486.802094,724.835754 
	C489.040741,722.478577 491.404816,722.559570 493.937500,725.097900 
z"/>
<path fill="#F6EDDA" opacity="1.000000" stroke="none" 
	d="
M511.922058,496.621124 
	C508.677490,496.100616 507.068756,494.416748 507.387573,491.441345 
	C507.600159,489.457245 508.959717,488.129883 510.921265,487.693695 
	C512.936340,487.245667 514.711548,488.046692 515.571533,489.814240 
	C517.264954,493.294617 515.811279,495.526398 511.922058,496.621124 
z"/>
<path fill="#F09D20" opacity="1.000000" stroke="none" 
	d="
M527.240234,510.981873 
	C528.327271,514.213623 528.843750,517.080505 524.835449,517.927979 
	C522.553772,518.410400 520.479736,517.727417 519.460815,515.386963 
	C518.670349,513.571289 518.854370,511.724579 520.394653,510.363037 
	C522.623352,508.392975 524.890442,508.588684 527.240234,510.981873 
z"/>
<path fill="#F29F21" opacity="1.000000" stroke="none" 
	d="
M529.512817,827.672363 
	C532.369019,824.719971 535.115723,823.855042 537.447388,827.598633 
	C538.483826,829.262756 538.085266,831.146362 536.642212,832.621033 
	C535.345886,833.945740 533.695984,834.260315 532.051758,833.644104 
	C529.456421,832.671570 528.706604,830.633545 529.512817,827.672363 
z"/>
<path fill="#F29F21" opacity="1.000000" stroke="none" 
	d="
M539.676575,587.452148 
	C541.005615,587.293152 542.065002,587.046448 542.951965,587.333191 
	C545.107849,588.029968 546.058044,589.686768 545.880798,591.949463 
	C545.730469,593.869812 544.473633,594.880676 542.811157,595.458252 
	C540.437927,596.282898 538.981201,594.841431 537.874939,593.120544 
	C536.427856,590.869507 537.270203,589.032104 539.676575,587.452148 
z"/>
<path fill="#F19E21" opacity="1.000000" stroke="none" 
	d="
M538.951416,370.193787 
	C539.112854,373.369934 537.967529,375.000153 535.012146,374.986786 
	C532.986206,374.977631 531.435852,374.257751 531.118652,372.058319 
	C530.850952,370.202362 530.889954,368.180389 532.959900,367.444366 
	C535.436401,366.563782 537.903137,366.545471 538.951416,370.193787 
z"/>
<path fill="#F19F21" opacity="1.000000" stroke="none" 
	d="
M555.461304,725.509888 
	C552.285339,726.205811 550.601074,724.907288 550.101196,722.227295 
	C549.692932,720.039062 550.632935,718.288574 552.752258,717.453674 
	C554.510803,716.760864 556.097107,717.362427 557.086792,718.898743 
	C558.684143,721.378357 558.226074,723.595703 555.461304,725.509888 
z"/>
<path fill="#F19E21" opacity="1.000000" stroke="none" 
	d="
M527.757202,562.757446 
	C523.142151,561.394958 521.633057,558.321594 524.077148,555.850037 
	C525.703796,554.205078 527.889954,553.328125 529.669189,555.442932 
	C532.061279,558.286255 531.464417,560.864807 527.757202,562.757446 
z"/>
<path fill="#F5EFE3" opacity="1.000000" stroke="none" 
	d="
M545.708618,471.706177 
	C543.295044,469.656982 542.898315,467.539886 544.936279,465.483032 
	C546.405640,464.000122 548.282043,464.005646 549.932312,465.308594 
	C551.619995,466.641052 551.790833,468.440521 550.797913,470.241241 
	C549.751160,472.139557 548.003662,472.423798 545.708618,471.706177 
z"/>
<path fill="#F3A222" opacity="1.000000" stroke="none" 
	d="
M535.729248,522.275391 
	C538.131714,523.274963 539.259949,524.764709 538.641357,527.046936 
	C538.226685,528.576782 537.091248,529.562927 535.480164,529.793884 
	C533.840759,530.028931 532.394409,529.352478 531.782104,527.914612 
	C530.314941,524.469421 531.796204,522.621704 535.729248,522.275391 
z"/>
<path fill="#F19E20" opacity="1.000000" stroke="none" 
	d="
M557.347168,516.529419 
	C553.985962,517.353638 551.445679,516.703979 551.495056,513.160339 
	C551.526306,510.921478 553.564880,509.680145 555.804016,510.298370 
	C558.422119,511.021271 559.552795,512.871643 558.330139,515.613037 
	C558.203552,515.896973 557.900024,516.101990 557.347168,516.529419 
z"/>
<path fill="#F09D20" opacity="1.000000" stroke="none" 
	d="
M513.891052,537.098877 
	C513.784912,539.953979 512.425293,541.062134 510.028564,540.895874 
	C508.323639,540.777710 507.280792,539.802612 507.076782,538.101379 
	C506.860809,536.300293 507.312744,534.711182 509.285919,534.217712 
	C511.479706,533.669128 513.228821,534.238770 513.891052,537.098877 
z"/>
<path fill="#F09D20" opacity="1.000000" stroke="none" 
	d="
M537.214844,491.331970 
	C538.743469,488.621552 540.734009,488.433167 542.804932,489.815338 
	C544.204895,490.749725 544.231812,492.378418 543.721252,493.873932 
	C543.155701,495.530365 541.788635,496.072968 540.163269,495.909515 
	C537.627136,495.654510 536.898193,494.005463 537.214844,491.331970 
z"/>
<path fill="#FFFFFF" opacity="1.000000" stroke="none" 
	d="
M936.013916,616.046082 
	C937.106689,621.520203 937.995728,626.584656 937.989685,631.771301 
	C937.969177,649.225098 938.762756,666.710815 935.121460,683.980225 
	C934.013428,689.234924 932.520020,694.271606 930.018738,699.045654 
	C921.981079,714.386475 912.754822,729.034180 903.171387,743.406555 
	C897.300476,752.211243 887.864441,757.496521 879.169067,763.286194 
	C877.714355,764.254639 875.746155,764.645020 873.958862,764.888855 
	C863.152893,766.363159 861.530945,764.175964 865.283569,754.260864 
	C870.249939,741.138611 873.316345,727.523193 875.016602,713.594421 
	C875.256348,711.630554 875.545959,709.585632 876.304565,707.785645 
	C884.673035,687.930054 887.435486,666.917053 890.270874,645.757141 
	C893.071472,624.856079 886.610596,605.898193 880.396667,586.840210 
	C878.505920,581.041504 874.568726,575.336914 870.140564,571.071960 
	C863.358765,564.540161 862.175293,555.492432 857.777710,547.957642 
	C855.431763,543.938171 860.987305,538.969177 866.131287,540.338745 
	C872.568604,542.052673 878.799927,544.248779 884.167603,548.556824 
	C894.664917,556.981750 905.208008,565.365112 916.016907,573.381653 
	C925.929932,580.733826 929.921509,591.293701 932.966248,602.483276 
	C934.144287,606.812805 934.951843,611.243103 936.013916,616.046082 
z"/>
<path fill="#FFFFFF" opacity="1.000000" stroke="none" 
	d="
M848.914551,293.616882 
	C849.960388,279.067932 847.060303,265.680420 841.726746,252.727325 
	C839.074219,246.285187 838.515198,239.286530 836.580566,232.617310 
	C833.355286,221.498856 829.622620,210.767761 824.080200,200.664337 
	C822.378418,197.562149 823.429016,195.815979 826.290588,194.943497 
	C832.057922,193.185043 838.112183,192.895462 843.183533,196.305649 
	C855.478821,204.573410 865.301270,215.224426 872.453979,228.348373 
	C876.434204,235.651428 880.653137,242.787842 882.254089,251.079910 
	C886.459534,272.862274 883.798645,293.724243 874.163269,313.765411 
	C866.353210,330.009918 854.634766,342.139648 838.085876,349.506287 
	C835.548035,350.635986 833.299561,351.697571 830.789368,349.316162 
	C828.066223,346.732666 829.765015,344.483673 830.930298,342.135681 
	C834.256592,335.432892 839.016602,329.565094 842.008972,322.639587 
	C845.962952,313.488647 847.084473,303.716431 848.914551,293.616882 
z"/>
<path fill="#FFFFFF" opacity="1.000000" stroke="none" 
	d="
M520.001770,116.994308 
	C527.169128,119.491776 533.214844,123.380318 539.511108,126.764801 
	C541.630676,127.904152 544.765747,128.667969 543.616394,131.990952 
	C542.571899,135.010590 539.959717,137.080643 536.685242,136.709061 
	C531.965942,136.173508 527.422668,135.349731 522.976990,132.829498 
	C502.749298,121.362534 483.479065,107.993141 461.886536,99.196419 
	C446.741058,93.026199 430.669891,89.015060 414.156799,93.571831 
	C399.706238,97.559448 386.744965,104.710312 375.654572,114.920006 
	C371.175812,119.043129 365.513947,121.253098 360.720856,124.827415 
	C358.617767,126.395760 357.376495,124.889404 356.068939,123.577599 
	C354.423248,121.926582 353.272522,120.091103 354.890747,117.854660 
	C356.447296,115.703438 358.043152,113.540924 359.892151,111.647408 
	C372.676849,98.555138 385.342590,85.336365 401.065491,75.565384 
	C406.178284,72.388031 411.802917,70.571175 417.552063,70.310226 
	C430.809235,69.708519 444.060394,69.078918 457.116486,73.342995 
	C464.673676,75.811157 469.806274,81.003113 475.361725,85.904991 
	C487.081573,96.245979 498.515106,106.953423 512.789185,113.859428 
	C515.032837,114.944939 517.363464,115.850655 520.001770,116.994308 
z"/>
<path fill="#FEFEFE" opacity="1.000000" stroke="none" 
	d="
M753.628906,134.464706 
	C755.551575,138.365723 757.147034,142.027679 759.040710,145.528229 
	C760.347290,147.943466 759.350403,149.682800 757.931641,151.401260 
	C756.305786,153.370590 754.467041,152.817657 752.574463,151.724396 
	C749.984192,150.228073 747.335388,148.833405 744.731567,147.360092 
	C733.363525,140.927750 721.317871,140.472931 708.982178,143.548355 
	C696.072998,146.766739 683.155273,149.963379 670.537109,154.261841 
	C664.845520,156.200729 658.866943,156.842896 652.865662,156.961288 
	C645.712402,157.102402 638.491577,156.563324 631.425781,157.391434 
	C627.007812,157.909180 625.739502,155.677841 624.522278,152.728745 
	C623.073303,149.218216 625.721619,147.870132 628.263062,146.897354 
	C644.241150,140.781418 659.634399,133.297775 675.809753,127.561768 
	C690.573059,122.326500 705.273438,124.260384 720.122803,124.744804 
	C727.805542,124.995415 735.323730,126.329567 742.745483,128.198364 
	C746.795410,129.218094 750.757202,130.579834 753.628906,134.464706 
z"/>
<path fill="#FFCE3A" opacity="1.000000" stroke="none" 
	d="
M613.950378,376.748779 
	C613.543091,376.639984 613.130310,376.215790 612.688782,375.483398 
	C613.088318,375.594604 613.516602,376.013977 613.950378,376.748779 
z"/>
<path fill="#FFCE3A" opacity="1.000000" stroke="none" 
	d="
M612.709961,375.045166 
	C612.483887,375.148804 612.155884,374.993500 611.734619,374.571655 
	C611.963562,374.465485 612.285828,374.625824 612.709961,375.045166 
z"/>
<path fill="#CECECE" opacity="1.000000" stroke="none" 
	d="
M653.776611,943.221619 
	C638.913330,940.700928 624.545776,938.063354 610.363831,934.365356 
	C600.840637,931.882141 590.979858,931.461853 581.175110,932.358643 
	C578.031128,932.646240 574.900696,933.141541 571.746277,933.006042 
	C558.593140,932.441284 545.492188,933.740173 532.365295,934.076721 
	C524.807251,934.270386 517.531555,932.257202 510.063324,931.884277 
	C508.058411,931.784119 506.558655,930.654419 506.252502,928.555908 
	C505.919739,926.274902 507.803497,925.777954 509.373749,925.381897 
	C525.504028,921.313721 541.600037,917.836731 558.519592,920.478088 
	C571.947815,922.574524 585.759705,922.516113 599.037476,925.208557 
	C625.395752,930.553467 651.958923,930.285400 678.544678,929.869934 
	C690.396484,929.684814 701.697632,926.236877 712.803589,921.775085 
	C724.029663,917.264954 735.161499,912.257202 747.117188,909.754883 
	C749.056030,909.349060 751.050903,909.155457 753.030640,909.012085 
	C757.202881,908.710144 761.033813,910.067749 762.485718,913.993713 
	C763.956421,917.970886 763.369568,922.160706 760.010132,925.546631 
	C754.872986,930.724304 748.128601,932.835449 741.568176,935.009277 
	C725.032898,940.488525 707.719360,941.384277 690.538513,943.085144 
	C678.414185,944.285522 666.332275,944.459656 653.776611,943.221619 
z"/>
<path fill="#EE9C28" opacity="1.000000" stroke="none" 
	d="
M444.058624,949.726196 
	C462.677582,950.490540 480.985718,950.259949 499.065735,953.467957 
	C510.361542,955.472168 521.667786,957.456604 533.023438,959.069214 
	C539.274231,959.956909 545.630493,959.745911 551.955505,959.235474 
	C557.262817,958.807129 562.541260,958.943054 567.706909,961.239807 
	C567.348877,961.930725 567.228760,962.596680 566.914551,962.706299 
	C553.736450,967.303833 540.717896,973.938110 526.766846,974.100708 
	C497.537994,974.441406 468.468201,972.204041 443.000427,955.124451 
	C441.796783,954.317322 439.691650,953.945435 439.788971,952.336304 
	C439.909393,950.346069 442.229401,950.484863 444.058624,949.726196 
z"/>
<path fill="#FEFEFE" opacity="1.000000" stroke="none" 
	d="
M122.839310,388.735413 
	C119.266113,388.027222 120.738335,385.767395 121.022728,383.981964 
	C122.640846,373.823090 127.143631,365.021118 134.240311,357.683624 
	C149.251297,342.163300 165.238190,328.024414 187.054245,322.749664 
	C187.700745,322.593353 188.334061,322.296722 188.984863,322.258484 
	C192.054596,322.078094 195.988312,320.765381 197.310959,324.577667 
	C198.634109,328.391388 195.962524,330.995300 192.541718,332.792664 
	C183.699875,337.438385 174.928070,342.406708 167.425156,348.934265 
	C157.768127,357.335785 146.353668,363.490692 137.560318,372.943878 
	C132.719177,378.148285 129.238327,384.595032 122.839310,388.735413 
z"/>
<path fill="#FEFEFE" opacity="1.000000" stroke="none" 
	d="
M273.343750,802.291382 
	C271.656860,808.251953 266.443207,808.425110 262.095459,808.853638 
	C244.537094,810.584045 227.966309,807.153748 212.843689,797.816223 
	C210.935226,796.637817 207.333862,795.876099 208.571732,792.640564 
	C209.848221,789.304016 212.968338,787.651794 216.697479,788.247314 
	C218.472900,788.530823 220.364380,789.068604 221.849136,790.035095 
	C233.084381,797.349121 245.741592,798.594482 258.642273,799.008057 
	C262.602417,799.134949 266.669342,798.221741 270.491730,799.857849 
	C271.511169,800.294189 272.308136,801.250244 273.343750,802.291382 
z"/>
</svg>