<?xml version="1.0" standalone="no"?>
<!DOCTYPE svg PUBLIC "-//W3C//DTD SVG 20010904//EN"
 "http://www.w3.org/TR/2001/REC-SVG-20010904/DTD/svg10.dtd">
<svg version="1.0" xmlns="http://www.w3.org/2000/svg"
 width="96.000000pt" height="96.000000pt" viewBox="0 0 96.000000 96.000000"
 preserveAspectRatio="xMidYMid meet">

<g transform="translate(0.000000,96.000000) scale(0.100000,-0.100000)"
fill="#ffe17d" stroke="none">
<path d="M371 894 c-212 -57 -350 -268 -314 -480 41 -235 261 -396 489 -357
234 40 396 261 357 487 -44 255 -288 416 -532 350z m-21 -289 c26 -32 -13 -81
-47 -59 -23 14 -28 41 -13 59 16 19 44 19 60 0z m320 0 c26 -32 -13 -81 -47
-59 -23 14 -28 41 -13 59 16 19 44 19 60 0z m-95 -199 c59 -27 98 -67 93 -92
-6 -31 -37 -27 -78 10 -42 38 -90 52 -146 42 -19 -4 -53 -23 -74 -42 -41 -37
-72 -41 -78 -10 -9 44 107 116 188 116 26 0 66 -10 95 -24z"/>
</g>
</svg>
