<?xml version="1.0" standalone="no"?><svg xmlns="http://www.w3.org/2000/svg" viewBox="0 0 1440 320"><path fill="#F8C500" fill-opacity="1" d="M0,0L26.7,26.7C53.3,53,107,107,160,112C213.3,117,267,75,320,90.7C373.3,107,427,181,480,181.3C533.3,181,587,107,640,90.7C693.3,75,747,117,800,154.7C853.3,192,907,224,960,224C1013.3,224,1067,192,1120,186.7C1173.3,181,1227,203,1280,218.7C1333.3,235,1387,245,1413,250.7L1440,256L1440,320L1413.3,320C1386.7,320,1333,320,1280,320C1226.7,320,1173,320,1120,320C1066.7,320,1013,320,960,320C906.7,320,853,320,800,320C746.7,320,693,320,640,320C586.7,320,533,320,480,320C426.7,320,373,320,320,320C266.7,320,213,320,160,320C106.7,320,53,320,27,320L0,320Z"></path></svg>